# xmcd
#
# Track frame offsets: 
#        150
#        9770
#        21883
#        34985
#        44805
#        56568
#        67004
#        79134
#        90461
#        101967
#        114898
#        126294
#
# Disc length: 1815 seconds
#
# Revision: 2
# Processed by: cddbd v1.5.2PL0 Copyright (c) Steve Scherf et al.
# Submitted via: ExactAudioCopy v0.95b4
#
DISCID=9d07150c
DTITLE=Various Artist - Bluegrass Breakdown
DYEAR=2002
DGENRE=Bluegrass
TTITLE0=Bill Monroe - Blue Moon of Kentucky
TTITLE1=Lester Flatt and Earl Scruggs - Foggy Mountain Breakdown
TTITLE2=Jimmy Martin - You Don't Know My Mind
TTITLE3=Mac Wiseman - Jimmy Brown The Newsboy
TTITLE4=The Osborne Brothers - Rocky Top
TTITLE5=Eric Weissberg and Steve Mandell - Dueling Banjos
TTITLE6=Bill Monroe - Footprints In The Snow
TTITLE7=Lester Flatt and Earl Scruggs - Cabin On The Hill
TTITLE8=Jimmy Martin - Sunny Side of The Mountain
TTITLE9=Mac Wiseman - I Wonder How The Old Folks Are
TTITLE10=The Osborne Brothers - Tennessee Hound Dog
TTITLE11=Grandpa Jones - Mountain Dew
EXTD=
EXTT0=
EXTT1=
EXTT2=
EXTT3=
EXTT4=
EXTT5=
EXTT6=
EXTT7=
EXTT8=
EXTT9=
EXTT10=
EXTT11=
PLAYORDER=
